<mxfile host="Electron" modified="2023-10-04T11:10:08.176Z" agent="5.0 (Windows NT 10.0; Win64; x64) AppleWebKit/537.36 (KHTML, like Gecko) draw.io/20.3.0 Chrome/104.0.5112.114 Electron/20.1.3 Safari/537.36" etag="7kx1n6wdwQOmH_AQk19N" compressed="false" version="20.3.0" type="device">
  <diagram name="PE005A" id="1CP9VX86ncTdAmcYDIcw">
    <mxGraphModel dx="782" dy="531" grid="1" gridSize="2" guides="1" tooltips="1" connect="1" arrows="1" fold="1" page="1" pageScale="1" pageWidth="1169" pageHeight="827" math="0" shadow="0">
      <root>
        <mxCell id="22vkG-h5v2N9dKBLQ-ZE-0" />
        <mxCell id="22vkG-h5v2N9dKBLQ-ZE-135" value="Label" style="" parent="22vkG-h5v2N9dKBLQ-ZE-0" />
        <object label="Symbol" Width="6" Height="5" UoM="mm" id="22vkG-h5v2N9dKBLQ-ZE-138">
          <mxCell style="locked=1;" parent="22vkG-h5v2N9dKBLQ-ZE-0" />
        </object>
        <mxCell id="evvQ-OwQdttTNtQ9YJ5s-3" value="" style="group" parent="22vkG-h5v2N9dKBLQ-ZE-138" vertex="1" connectable="0">
          <mxGeometry x="416" y="343" width="32" height="64" as="geometry" />
        </mxCell>
        <mxCell id="evvQ-OwQdttTNtQ9YJ5s-0" value="" style="endArrow=none;html=1;rounded=0;fontSize=9;fontColor=#FF0000;" parent="evvQ-OwQdttTNtQ9YJ5s-3" edge="1">
          <mxGeometry width="50" height="50" relative="1" as="geometry">
            <mxPoint as="sourcePoint" />
            <mxPoint x="32" as="targetPoint" />
          </mxGeometry>
        </mxCell>
        <mxCell id="evvQ-OwQdttTNtQ9YJ5s-1" value="" style="endArrow=none;html=1;rounded=0;fontSize=9;fontColor=#FF0000;" parent="evvQ-OwQdttTNtQ9YJ5s-3" edge="1">
          <mxGeometry width="50" height="50" relative="1" as="geometry">
            <mxPoint x="32" y="64" as="sourcePoint" />
            <mxPoint x="32" as="targetPoint" />
          </mxGeometry>
        </mxCell>
        <mxCell id="evvQ-OwQdttTNtQ9YJ5s-2" value="" style="endArrow=none;html=1;rounded=0;fontSize=9;fontColor=#FF0000;" parent="evvQ-OwQdttTNtQ9YJ5s-3" edge="1">
          <mxGeometry width="50" height="50" relative="1" as="geometry">
            <mxPoint y="64" as="sourcePoint" />
            <mxPoint x="32" y="64" as="targetPoint" />
          </mxGeometry>
        </mxCell>
        <mxCell id="evvQ-OwQdttTNtQ9YJ5s-4" value="" style="group;rotation=-180;" parent="22vkG-h5v2N9dKBLQ-ZE-138" vertex="1" connectable="0">
          <mxGeometry x="480" y="343" width="32" height="64" as="geometry" />
        </mxCell>
        <mxCell id="evvQ-OwQdttTNtQ9YJ5s-5" value="" style="endArrow=none;html=1;rounded=0;fontSize=9;fontColor=#FF0000;" parent="evvQ-OwQdttTNtQ9YJ5s-4" edge="1">
          <mxGeometry width="50" height="50" relative="1" as="geometry">
            <mxPoint x="32" y="64" as="sourcePoint" />
            <mxPoint y="64" as="targetPoint" />
          </mxGeometry>
        </mxCell>
        <mxCell id="evvQ-OwQdttTNtQ9YJ5s-6" value="" style="endArrow=none;html=1;rounded=0;fontSize=9;fontColor=#FF0000;" parent="evvQ-OwQdttTNtQ9YJ5s-4" edge="1">
          <mxGeometry width="50" height="50" relative="1" as="geometry">
            <mxPoint as="sourcePoint" />
            <mxPoint y="64" as="targetPoint" />
          </mxGeometry>
        </mxCell>
        <mxCell id="evvQ-OwQdttTNtQ9YJ5s-7" value="" style="endArrow=none;html=1;rounded=0;fontSize=9;fontColor=#FF0000;" parent="evvQ-OwQdttTNtQ9YJ5s-4" edge="1">
          <mxGeometry width="50" height="50" relative="1" as="geometry">
            <mxPoint x="32" as="sourcePoint" />
            <mxPoint as="targetPoint" />
          </mxGeometry>
        </mxCell>
        <mxCell id="evvQ-OwQdttTNtQ9YJ5s-8" value="" style="endArrow=none;html=1;rounded=0;fontSize=9;fontColor=#FF0000;startArrow=none;" parent="22vkG-h5v2N9dKBLQ-ZE-138" source="evvQ-OwQdttTNtQ9YJ5s-9" edge="1">
          <mxGeometry width="50" height="50" relative="1" as="geometry">
            <mxPoint x="464" y="416" as="sourcePoint" />
            <mxPoint x="464" y="336" as="targetPoint" />
          </mxGeometry>
        </mxCell>
        <object label="origo" id="evvQ-OwQdttTNtQ9YJ5s-9">
          <mxCell style="vsdxID=1407;fillColor=none;gradientColor=none;shape=stencil(rVFbDsIgEDwNnyQU4glqvcfGblsilmZBS28vZGMsxg9j/JvZmX1kR5g2TLCg0CpE8hdcbR8nYY5CaztPSDZmJEwnTDt4wpH8be6ZL1CcBV39vUxI3KdKh1YbswPTEzuBzlmiVGmKau9zUKM+jlJJQrJBko8QrZ+rrQ5oRJnXyMHBWElhRVx25ebnw/5zVvPFWRm83jxY5zilvf4eSy5xpKZ7AA==);strokeColor=#ff0000;strokeWidth=1;points=[[0.5,0.5,0,0,0]];labelBackgroundColor=none;rounded=0;html=1;whiteSpace=wrap;aspect=fixed;noLabel=1;snapToPoint=1;fontSize=9;fontColor=#FF0000;" parent="22vkG-h5v2N9dKBLQ-ZE-138" vertex="1">
            <mxGeometry x="460" y="372" width="8" height="8" as="geometry" />
          </mxCell>
        </object>
        <mxCell id="evvQ-OwQdttTNtQ9YJ5s-10" value="" style="endArrow=none;html=1;rounded=0;fontSize=9;fontColor=#FF0000;" parent="22vkG-h5v2N9dKBLQ-ZE-138" target="evvQ-OwQdttTNtQ9YJ5s-9" edge="1">
          <mxGeometry width="50" height="50" relative="1" as="geometry">
            <mxPoint x="464" y="416" as="sourcePoint" />
            <mxPoint x="464" y="336" as="targetPoint" />
          </mxGeometry>
        </mxCell>
        <mxCell id="22vkG-h5v2N9dKBLQ-ZE-124" value="Connection" style="" parent="22vkG-h5v2N9dKBLQ-ZE-0" />
        <object label="Connection" PipingConnector="Y" LabelConnector="N" SignalConnector="N" Direction="0" id="evvQ-OwQdttTNtQ9YJ5s-11">
          <mxCell style="vsdxID=1407;fillColor=none;gradientColor=none;shape=stencil(rVFbDsIgEDwNnyQU4glqvcfGblsilmZBS28vZGMsxg9j/JvZmX1kR5g2TLCg0CpE8hdcbR8nYY5CaztPSDZmJEwnTDt4wpH8be6ZL1CcBV39vUxI3KdKh1YbswPTEzuBzlmiVGmKau9zUKM+jlJJQrJBko8QrZ+rrQ5oRJnXyMHBWElhRVx25ebnw/5zVvPFWRm83jxY5zilvf4eSy5xpKZ7AA==);strokeColor=#00ff00;strokeWidth=1;points=[[0.5,0.5,0,0,0]];labelBackgroundColor=none;rounded=0;html=1;whiteSpace=wrap;aspect=fixed;noLabel=1;snapToPoint=1;container=0;fontSize=16;fontColor=#FF0000;" parent="22vkG-h5v2N9dKBLQ-ZE-124" vertex="1">
            <mxGeometry x="474" y="370" width="12" height="12" as="geometry" />
          </mxCell>
        </object>
        <object label="Connection" PipingConnector="Y" LabelConnector="N" SignalConnector="N" Direction="180" id="evvQ-OwQdttTNtQ9YJ5s-13">
          <mxCell style="vsdxID=1407;fillColor=none;gradientColor=none;shape=stencil(rVFbDsIgEDwNnyQU4glqvcfGblsilmZBS28vZGMsxg9j/JvZmX1kR5g2TLCg0CpE8hdcbR8nYY5CaztPSDZmJEwnTDt4wpH8be6ZL1CcBV39vUxI3KdKh1YbswPTEzuBzlmiVGmKau9zUKM+jlJJQrJBko8QrZ+rrQ5oRJnXyMHBWElhRVx25ebnw/5zVvPFWRm83jxY5zilvf4eSy5xpKZ7AA==);strokeColor=#00ff00;strokeWidth=1;points=[[0.5,0.5,0,0,0]];labelBackgroundColor=none;rounded=0;html=1;whiteSpace=wrap;aspect=fixed;noLabel=1;snapToPoint=1;container=0;fontSize=16;fontColor=#FF0000;" parent="22vkG-h5v2N9dKBLQ-ZE-124" vertex="1">
            <mxGeometry x="442" y="370" width="12" height="12" as="geometry" />
          </mxCell>
        </object>
        <mxCell id="22vkG-h5v2N9dKBLQ-ZE-136" value="Origo" style="" parent="22vkG-h5v2N9dKBLQ-ZE-0" />
      </root>
    </mxGraphModel>
  </diagram>
</mxfile>
